<mxfile host="app.diagrams.net" modified="2022-01-07T10:21:19.177Z" agent="5.0 (Windows NT 10.0; Win64; x64) AppleWebKit/537.36 (KHTML, like Gecko) Chrome/96.0.4664.110 Safari/537.36" etag="I3Rdis5UyFb1bxyrGGjT" version="16.1.4" type="github">
  <diagram id="CXIuREQjfDhPC_zhZnnm" name="第 1 页">
    <mxGraphModel dx="1422" dy="786" grid="1" gridSize="10" guides="1" tooltips="1" connect="1" arrows="1" fold="1" page="1" pageScale="1" pageWidth="827" pageHeight="1169" math="0" shadow="0">
      <root>
        <mxCell id="0" />
        <mxCell id="1" parent="0" />
        <mxCell id="MwRpv7RLUUpwHlxENHBf-3" value="" style="edgeStyle=orthogonalEdgeStyle;rounded=0;orthogonalLoop=1;jettySize=auto;html=1;" edge="1" parent="1" source="MwRpv7RLUUpwHlxENHBf-1" target="MwRpv7RLUUpwHlxENHBf-2">
          <mxGeometry relative="1" as="geometry" />
        </mxCell>
        <mxCell id="MwRpv7RLUUpwHlxENHBf-1" value="Actor" style="shape=umlActor;verticalLabelPosition=bottom;verticalAlign=top;html=1;outlineConnect=0;" vertex="1" parent="1">
          <mxGeometry x="20" y="190" width="30" height="60" as="geometry" />
        </mxCell>
        <mxCell id="MwRpv7RLUUpwHlxENHBf-5" value="" style="edgeStyle=orthogonalEdgeStyle;rounded=0;orthogonalLoop=1;jettySize=auto;html=1;" edge="1" parent="1" source="MwRpv7RLUUpwHlxENHBf-2" target="MwRpv7RLUUpwHlxENHBf-4">
          <mxGeometry relative="1" as="geometry" />
        </mxCell>
        <mxCell id="MwRpv7RLUUpwHlxENHBf-2" value="添加宠物" style="rounded=1;whiteSpace=wrap;html=1;verticalAlign=top;" vertex="1" parent="1">
          <mxGeometry x="85" y="190" width="120" height="60" as="geometry" />
        </mxCell>
        <mxCell id="MwRpv7RLUUpwHlxENHBf-7" value="" style="edgeStyle=orthogonalEdgeStyle;rounded=0;orthogonalLoop=1;jettySize=auto;html=1;" edge="1" parent="1" source="MwRpv7RLUUpwHlxENHBf-4" target="MwRpv7RLUUpwHlxENHBf-6">
          <mxGeometry relative="1" as="geometry" />
        </mxCell>
        <mxCell id="MwRpv7RLUUpwHlxENHBf-11" value="" style="edgeStyle=orthogonalEdgeStyle;rounded=0;orthogonalLoop=1;jettySize=auto;html=1;" edge="1" parent="1" source="MwRpv7RLUUpwHlxENHBf-4" target="MwRpv7RLUUpwHlxENHBf-10">
          <mxGeometry relative="1" as="geometry" />
        </mxCell>
        <mxCell id="MwRpv7RLUUpwHlxENHBf-4" value="用户填写宠物信息并添加到我的宠物" style="rounded=1;whiteSpace=wrap;html=1;verticalAlign=top;" vertex="1" parent="1">
          <mxGeometry x="85" y="330" width="120" height="60" as="geometry" />
        </mxCell>
        <mxCell id="MwRpv7RLUUpwHlxENHBf-6" value="完成" style="rounded=1;whiteSpace=wrap;html=1;verticalAlign=top;" vertex="1" parent="1">
          <mxGeometry x="85" y="470" width="120" height="60" as="geometry" />
        </mxCell>
        <mxCell id="MwRpv7RLUUpwHlxENHBf-10" value="回滚" style="rounded=1;whiteSpace=wrap;html=1;verticalAlign=top;" vertex="1" parent="1">
          <mxGeometry x="285" y="330" width="120" height="60" as="geometry" />
        </mxCell>
        <mxCell id="MwRpv7RLUUpwHlxENHBf-12" value="失败" style="text;html=1;align=center;verticalAlign=middle;resizable=0;points=[];autosize=1;strokeColor=none;fillColor=none;" vertex="1" parent="1">
          <mxGeometry x="220" y="340" width="40" height="20" as="geometry" />
        </mxCell>
        <mxCell id="MwRpv7RLUUpwHlxENHBf-13" value="成功" style="text;html=1;align=center;verticalAlign=middle;resizable=0;points=[];autosize=1;strokeColor=none;fillColor=none;" vertex="1" parent="1">
          <mxGeometry x="150" y="420" width="40" height="20" as="geometry" />
        </mxCell>
        <mxCell id="MwRpv7RLUUpwHlxENHBf-14" value="" style="endArrow=classic;html=1;rounded=0;exitX=0.5;exitY=0;exitDx=0;exitDy=0;entryX=1;entryY=0.5;entryDx=0;entryDy=0;" edge="1" parent="1" source="MwRpv7RLUUpwHlxENHBf-10" target="MwRpv7RLUUpwHlxENHBf-2">
          <mxGeometry width="50" height="50" relative="1" as="geometry">
            <mxPoint x="310" y="270" as="sourcePoint" />
            <mxPoint x="360" y="220" as="targetPoint" />
            <Array as="points">
              <mxPoint x="345" y="220" />
            </Array>
          </mxGeometry>
        </mxCell>
        <mxCell id="MwRpv7RLUUpwHlxENHBf-19" value="" style="edgeStyle=orthogonalEdgeStyle;rounded=0;orthogonalLoop=1;jettySize=auto;html=1;" edge="1" parent="1" source="MwRpv7RLUUpwHlxENHBf-17" target="MwRpv7RLUUpwHlxENHBf-18">
          <mxGeometry relative="1" as="geometry" />
        </mxCell>
        <mxCell id="MwRpv7RLUUpwHlxENHBf-17" value="Actor" style="shape=umlActor;verticalLabelPosition=bottom;verticalAlign=top;html=1;outlineConnect=0;" vertex="1" parent="1">
          <mxGeometry x="460" y="190" width="30" height="60" as="geometry" />
        </mxCell>
        <mxCell id="MwRpv7RLUUpwHlxENHBf-21" value="" style="edgeStyle=orthogonalEdgeStyle;rounded=0;orthogonalLoop=1;jettySize=auto;html=1;" edge="1" parent="1" source="MwRpv7RLUUpwHlxENHBf-18" target="MwRpv7RLUUpwHlxENHBf-20">
          <mxGeometry relative="1" as="geometry" />
        </mxCell>
        <mxCell id="MwRpv7RLUUpwHlxENHBf-18" value="修改宠物" style="rounded=1;whiteSpace=wrap;html=1;verticalAlign=top;" vertex="1" parent="1">
          <mxGeometry x="525" y="190" width="120" height="60" as="geometry" />
        </mxCell>
        <mxCell id="MwRpv7RLUUpwHlxENHBf-23" value="" style="edgeStyle=orthogonalEdgeStyle;rounded=0;orthogonalLoop=1;jettySize=auto;html=1;" edge="1" parent="1" source="MwRpv7RLUUpwHlxENHBf-20" target="MwRpv7RLUUpwHlxENHBf-22">
          <mxGeometry relative="1" as="geometry" />
        </mxCell>
        <mxCell id="MwRpv7RLUUpwHlxENHBf-26" value="" style="edgeStyle=orthogonalEdgeStyle;rounded=0;orthogonalLoop=1;jettySize=auto;html=1;" edge="1" parent="1" source="MwRpv7RLUUpwHlxENHBf-20" target="MwRpv7RLUUpwHlxENHBf-25">
          <mxGeometry relative="1" as="geometry" />
        </mxCell>
        <mxCell id="MwRpv7RLUUpwHlxENHBf-20" value="用户选择某个宠物进行修改" style="whiteSpace=wrap;html=1;verticalAlign=top;rounded=1;" vertex="1" parent="1">
          <mxGeometry x="525" y="330" width="120" height="60" as="geometry" />
        </mxCell>
        <mxCell id="MwRpv7RLUUpwHlxENHBf-22" value="回滚" style="rounded=1;whiteSpace=wrap;html=1;verticalAlign=top;" vertex="1" parent="1">
          <mxGeometry x="725" y="330" width="120" height="60" as="geometry" />
        </mxCell>
        <mxCell id="MwRpv7RLUUpwHlxENHBf-24" value="失败" style="text;html=1;align=center;verticalAlign=middle;resizable=0;points=[];autosize=1;strokeColor=none;fillColor=none;" vertex="1" parent="1">
          <mxGeometry x="660" y="340" width="40" height="20" as="geometry" />
        </mxCell>
        <mxCell id="MwRpv7RLUUpwHlxENHBf-25" value="成功" style="whiteSpace=wrap;html=1;verticalAlign=top;rounded=1;" vertex="1" parent="1">
          <mxGeometry x="525" y="470" width="120" height="60" as="geometry" />
        </mxCell>
        <mxCell id="MwRpv7RLUUpwHlxENHBf-27" value="成功" style="text;html=1;align=center;verticalAlign=middle;resizable=0;points=[];autosize=1;strokeColor=none;fillColor=none;" vertex="1" parent="1">
          <mxGeometry x="590" y="420" width="40" height="20" as="geometry" />
        </mxCell>
      </root>
    </mxGraphModel>
  </diagram>
</mxfile>
